<svg width="24" height="24" fill="none" xmlns="http://www.w3.org/2000/svg">
<g clip-path="url(#clip0_2_85)" stroke="#000" stroke-width="1.5" stroke-linecap="round">
<path d="M19.67 14.715L22.596 3.8a1.87 1.87 0 0 0-1.343-2.31 1.87 1.87 0 0 0-2.318 1.33l-2.925 10.914 1.343 2.31 2.319-1.33zM18.44 4.66l3.661.981" stroke-linejoin="round"/>
<path d="M4.042 11.219c-.533 0-1.195.35-1.646.606-.502.286-1.145.783-1.306 1.376-.26.954.037 1.778.945 2.195 1.101.505 2.854.625 3.947-.004.324-.186.966-.615 1.04-1.024.103-.563-.402-1.242-.736-1.653-.08-.099-1.202-1.476-1.416-1.05"/>
<path d="M6.675 13.186c.22.31.315.768.415 1.128.294 1.058.526 2.165.592 3.262.04.665.111 1.462-.035 2.117-.146.653-.673 1.288-1.078 1.804-.512.65-1.22 1.216-2.04 1.405-.634.146-1.392.163-1.876-.331-.82-.839-1.169-2.438-.347-3.394.497-.579 1.307-.921 1.911-1.38.372-.282.79-.445 1.196-.669.269-.149.457-.383.712-.54a6.275 6.275 0 0 0 1.472-1.3c.363-.442.631-.97.937-1.454.013-.021.243-.555.184-.555-.133 0-.044.791-.021.847.295.706 1.005 1.199 1.738 1.337.518.098 1.109.036 1.631.025.395-.008.837.004 1.213-.139.549-.208.62-1.408.376-1.882-.245-.475-.57-1.053-1.057-1.309-.496-.26-1.142-.314-1.688-.402-.338-.054-.769-.099-1.107-.003-.463.13-1.2.443-1.496.825-.125.161.009.406.092.544"/>
<path d="M12.773 15.163c.798.75 1.866 1.352 2.969 1.36.18.002.975.103.975-.258"/>
</g>
<defs><clipPath id="clip0_2_85"><path fill="#fff" d="M0 0H24V24H0z"/></clipPath></defs></svg>